<?xml version="1.0" encoding="UTF-8"?>
<svg xmlns="http://www.w3.org/2000/svg" version="1.1" viewBox="0 0 294 22">
  <defs>
    <style>
      .cls-1 {
        fill: #b9923d;
      }

      .cls-2 {
        fill: #050505;
      }

      .cls-3 {
        fill: #040404;
      }
    </style>
  </defs>
  <g>
    <g id="Layer_1">
      <g>
        <path class="cls-1" d="M1.78,19.73V2.64c.43,0,.81,0,1.2,0,8.75,0,17.5,0,26.25,0,2.79,0,4.19,1.38,4.2,4.14,0,.2,0,.39,0,.59.05,1.4.11,2.79-1.09,3.74,1.69,2.19,1.36,4.5.63,6.71-.46,1.38-1.77,1.93-3.28,1.92-6.59-.02-13.19,0-19.78,0-2.67,0-5.34,0-8.14,0ZM5.56,16.02c.42.02.7.05.98.05,7.1,0,14.2,0,21.29,0,.32,0,.64-.02.95-.08.55-.09.79-.42.84-.98.11-1.37-.4-1.95-1.85-1.95-7.1,0-14.2,0-21.29,0-.28,0-.55.03-.91.05v2.9ZM5.61,9.25c.39.02.7.04,1.01.04,7.07,0,14.14,0,21.2,0,.28,0,.56,0,.84-.04.59-.1.89-.44.94-1.04.13-1.35-.3-1.8-1.8-1.8-7.07,0-14.14,0-21.2,0-.31,0-.62.04-.99.06v2.78Z"/>
        <path class="cls-2" d="M58.67,13.12v6.58h-3.79V2.64c.39,0,.73,0,1.08,0,8.83,0,17.66,0,26.49,0,2.69,0,4.15,1.42,4.18,4.07,0,.59,0,1.18,0,1.78,0,2.64-.37,3.29-2.64,4.6.85,2.14,1.7,4.3,2.63,6.66-1.26,0-2.39.05-3.51-.04-.27-.02-.59-.45-.73-.76-.91-1.93-1.77-3.87-2.66-5.84h-21.05ZM58.72,9.25c.39.02.74.05,1.08.05,7.03,0,14.07,0,21.1,0,.28,0,.56,0,.84-.03.66-.06.97-.44,1.04-1.09.12-1.26-.35-1.78-1.74-1.78-7.19,0-14.39,0-21.58,0-.23,0-.46.03-.74.05v2.8Z"/>
        <path class="cls-2" d="M192.82,19.72c-.14.01-.18.02-.22.02-2.38.27-4.47-.35-6.57-1.53-6.55-3.68-13.21-7.19-19.82-10.76-.34-.19-.69-.36-1.2-.63v12.87h-3.76V2.7c2.1-.17,4.01-.03,5.96,1.06,6.87,3.85,13.84,7.52,20.77,11.26.3.16.62.31,1.05.53V2.73h3.8v17Z"/>
        <path class="cls-3" d="M292.22,19.75c-1.58,0-2.96.03-4.33-.03-.29-.01-.62-.29-.84-.54-.83-.95-1.65-1.93-2.43-2.93-.35-.45-.72-.63-1.3-.62-4.63.02-9.27.02-13.9,0-.57,0-.96.16-1.31.61-.78,1-1.58,1.98-2.43,2.92-.26.28-.7.53-1.07.55-1.27.07-2.55.03-4,.03.24-.36.39-.61.57-.83,4.23-5.19,8.48-10.37,12.7-15.57.41-.51.84-.65,1.49-.74,2.07-.29,3.4.48,4.68,2.13,3.68,4.76,7.58,9.36,11.39,14.03.22.27.43.54.79.98ZM276.36,6.32c-1.61,1.92-3.13,3.73-4.72,5.62h9.43c-1.61-1.92-3.11-3.7-4.72-5.62Z"/>
        <path class="cls-3" d="M139.74,19.75c-1.54,0-2.85.03-4.17-.02-.33-.01-.74-.25-.97-.5-.87-.97-1.65-2.03-2.54-2.99-.28-.3-.78-.56-1.18-.56-4.67-.04-9.35-.04-14.02,0-.4,0-.9.26-1.18.56-.86.93-1.62,1.95-2.45,2.91-.22.25-.54.56-.82.57-1.38.06-2.76.03-4.33.03.33-.44.52-.72.74-.98,4.19-5.13,8.39-10.25,12.55-15.39.45-.55.91-.68,1.59-.77,2.03-.28,3.32.49,4.58,2.1,3.91,5.03,8.02,9.91,12.21,15.05ZM128.62,11.98c-1.67-1.99-3.19-3.79-4.75-5.66-1.61,1.92-3.12,3.72-4.75,5.66h9.51Z"/>
        <path class="cls-2" d="M228.25,6.42h-13.89v-3.71h31.64v3.67h-13.9v13.32h-3.85V6.42Z"/>
      </g>
    </g>
  </g>
</svg>