<?xml version="1.0" encoding="UTF-8"?>
<svg xmlns="http://www.w3.org/2000/svg" version="1.1" viewBox="0 0 390.96 23.5">
  <defs>
    <style>
      .cls-1 {
        fill: #b78f3b;
      }

      .cls-2 {
        fill: #fefefd;
      }

      .cls-3 {
        fill: #fefefe;
      }
    </style>
  </defs>
  <!-- Generator: Adobe Illustrator 28.7.1, SVG Export Plug-In . SVG Version: 1.2.0 Build 142)  -->
  <g>
    <g id="Layer_1">
      <g>
        <path class="cls-3" d="M39.09,0h351.87v23.28H39.09c2.89-1.02,4.07-3.11,3.84-6.1-.04-.48-.04-.96,0-1.43.12-1.63-.12-3.11-1.65-4.04,3.35-3.85,2.21-9.67-2.19-11.7Z"/>
        <path class="cls-1" d="M39.09,0c4.4,2.03,5.54,7.85,2.19,11.7,1.53.93,1.78,2.41,1.65,4.04-.04.48-.04.96,0,1.43.23,2.99-.95,5.08-3.84,6.1H.24V0h38.86ZM5.43,18.1c.24.06.31.09.39.09,10.06,0,20.12.02,30.19,0,1.43,0,1.85-.5,1.81-1.91-.04-1.49-.74-2.12-2.41-2.12-9.62,0-19.25,0-28.87,0-.35,0-.7.03-1.11.05v3.87ZM5.42,9.01c.29.04.45.07.6.07,9.9,0,19.81.01,29.71,0,1.71,0,2.3-.77,2.03-2.45-.19-1.19-.69-1.55-2.26-1.55-9.7,0-19.41,0-29.11,0-.3,0-.61.05-.97.09v3.84Z"/>
        <path class="cls-3" d="M.24,0c0,7.76,0,15.52,0,23.28-.08-.08-.23-.16-.23-.24-.01-7.6-.01-15.2,0-22.8,0-.08.15-.16.23-.24Z"/>
        <path class="cls-3" d="M5.43,18.1v-3.87c.41-.02.76-.05,1.11-.05,9.62,0,19.25,0,28.87,0,1.67,0,2.38.63,2.41,2.12.03,1.41-.38,1.9-1.81,1.91-10.06.01-20.12,0-30.19,0-.08,0-.15-.04-.39-.09Z"/>
        <path class="cls-2" d="M5.42,9.01v-3.84c.36-.03.66-.09.97-.09,9.7,0,19.41,0,29.11,0,1.57,0,2.07.36,2.26,1.55.27,1.68-.32,2.45-2.03,2.45-9.9.02-19.81,0-29.71,0-.16,0-.31-.04-.6-.07Z"/>
      </g>
    </g>
  </g>
</svg>