<?xml version="1.0" encoding="UTF-8"?>
<svg xmlns="http://www.w3.org/2000/svg" version="1.1" viewBox="0 0 292.08 19.96">
  <defs>
    <style>
      .cls-1 {
        fill: #010101;
      }

      .cls-2 {
        fill: #fcfcfc;
      }

      .cls-3 {
        fill: #020202;
      }

      .cls-4 {
        fill: #060606;
      }

      .cls-5 {
        fill: #b78f3b;
      }

      .cls-6 {
        fill: #fbfbfb;
      }

      .cls-7 {
        fill: #f9f9f9;
      }

      .cls-8 {
        fill: #fdfcfb;
      }

      .cls-9 {
        fill: #fcfcfa;
      }

      .cls-10 {
        fill: #030303;
      }

      .cls-11 {
        fill: #fdfdfc;
      }

      .cls-12 {
        fill: #fefdfd;
      }

      .cls-13 {
        fill: #0b0b0b;
      }

      .cls-14 {
        fill: #fefefe;
      }

      .cls-15 {
        fill: #040404;
      }

      .cls-16 {
        fill: #fafafa;
      }

      .cls-17 {
        fill: #fdfdfd;
      }
    </style>
  </defs>
  <!-- Generator: Adobe Illustrator 28.7.1, SVG Export Plug-In . SVG Version: 1.2.0 Build 142)  -->
  <g>
    <g id="Layer_1">
      <g>
        <path class="cls-14" d="M-.07,19.31V.83h292.08v18.48H-.07ZM231.83,5.55c-.08.29-.23.58-.23.87-.02,3.78-.01,7.56,0,11.33,0,.11.06.21.09.32.05,0,.1-.02.14-.03V5.79h13.14c0-.08,0-.16,0-.24-4.38,0-8.76,0-13.13,0ZM226.79,5.55h-13.14c0,.08,0,.16,0,.24h13.13v12.3c.23-4.05.23-8.09.22-12.13,0-.13-.14-.27-.22-.4ZM58.45,12.43h19.85c0-.08,0-.16,0-.24h-19.85c-.11,1.95-.22,3.9-.33,5.85h.33v-5.61ZM286.47,18.14c1.56.14,3.12.27,4.68.41.04-.12.08-.23.11-.35-.22-.2-.44-.4-.66-.6-3.87-4.77-7.8-9.49-11.56-14.35-1.17-1.51-2.38-2.19-4.27-1.99-.81.09-1.37.24-1.9.9-4.11,5.09-8.26,10.15-12.39,15.23-.24.29-.46.6-.72.94q4.28.48,6.85-2.61c.23-.27.41-.61.69-.81.35-.25.79-.56,1.19-.56,4.67-.04,9.35-.04,14.02,0,.4,0,.9.26,1.18.56.97,1.04,1.87,2.15,2.79,3.23ZM82.99,1.49c-.46-.07-.92-.19-1.39-.19-8.85-.01-17.7,0-26.56,0-.34,0-.69.03-1.06.05-.02.23-.05.38-.05.54,0,5.28,0,10.57,0,15.85,0,.2.12.4.18.6h3.63v-6.44c.21-.09.28-.14.35-.14,6.7,0,13.41-.02,20.11.01.31,0,.74.38.89.68.94,1.95,1.81,3.92,2.64,5.75h3.85c-.88-2.31-1.69-4.4-2.49-6.49,2.11-1.1,2.62-1.93,2.63-4.24,0-.71,0-1.42,0-2.13-.03-2.09-.75-3.09-2.75-3.85ZM.94,1.3v16.98c.16.06.23.11.3.11,9.34,0,18.69.03,28.03,0,1.3,0,2.44-.67,2.82-1.87.71-2.25,1.1-4.58-.6-6.68,1.07-1.45.97-1.46,1.1-3.35.24-3.7-1.23-5.35-5.32-5.23-5.94.16-11.9.04-17.85.04H.94ZM188.22,14.27c-.49-.25-.77-.38-1.04-.52-7.04-3.8-14.12-7.52-21.08-11.45-1.9-1.07-3.75-1-5.72-.97v17.04h3.77V5.5c.47.24.79.4,1.1.57,6.93,3.75,13.91,7.41,20.76,11.29,1.96,1.11,3.88,1.1,5.93,1.03V1.35h-3.72v12.91ZM138.39,18.21c-.38-.63-.58-1.07-.88-1.44-3.65-4.49-7.38-8.92-10.93-13.48-1.19-1.53-2.4-2.31-4.37-2.03-.74.11-1.29.21-1.8.84-4.13,5.12-8.3,10.21-12.46,15.31-.23.28-.44.59-.7.95q4.4.31,7.04-2.88c.13-.15.22-.36.39-.45.48-.26.98-.67,1.49-.68,3.15-.06,6.31-.04,9.46-.03,1.71,0,3.66-.45,5.07.21,1.37.63,2.2,2.41,3.27,3.69.02.03.06.05-.01,0h4.43ZM231.16,5.03h13.96V1.38h-31.66v3.68h13.9v13.33h3.8V5.03ZM29.11,19.04s.03-.08.05-.12H1.21s0,.08,0,.12h27.9ZM.35,1.59s-.08,0-.12,0v16.53s.08,0,.12,0V1.59ZM53.58,1.6s-.08-.03-.12-.04v16.54s.08,0,.12,0V1.6ZM192.53,18.04s.08.03.12.05V1.6s-.08,0-.12,0v16.44ZM159.71,18.06s.08.01.12.02V1.54s-.08,0-.12,0v16.52ZM115.53,14.86s0,.07,0,.11h15.04v-.11h-15.04ZM283.07,15.01s.03-.08.05-.12h-15s0,.08,0,.12h14.95ZM164.52,18.08c.06-.01.11-.02.17-.03V6.24c-.06,0-.11,0-.17,0v11.84ZM187.5,13.3l.12.05V1.6h-.12v11.7Z"/>
        <path class="cls-5" d="M.94,1.3h8.47c5.95,0,11.9.12,17.85-.04,4.09-.11,5.56,1.54,5.32,5.23-.12,1.89-.02,1.9-1.1,3.35,1.71,2.1,1.31,4.43.6,6.68-.37,1.19-1.51,1.86-2.82,1.87-9.34.02-18.69,0-28.03,0-.07,0-.14-.05-.3-.11V1.3ZM4.72,14.72c7.7,0,15.24,0,22.79,0,.97,0,1.3-.56,1.23-1.48-.08-1.12-.53-1.5-1.96-1.5-6.99,0-13.99,0-20.98,0-.35,0-.7.04-1.09.06v2.92ZM4.72,7.85c.22.05.33.1.45.1,7.39,0,14.78,0,22.17.01,1,0,1.45-.47,1.4-1.47-.05-1.13-.39-1.43-1.84-1.43-7.07,0-14.14,0-21.21,0-.31,0-.62.05-.97.08v2.71Z"/>
        <path class="cls-1" d="M82.99,1.49c2,.76,2.73,1.76,2.75,3.85,0,.71,0,1.42,0,2.13,0,2.31-.51,3.14-2.63,4.24.8,2.09,1.6,4.18,2.49,6.49h-3.85c-.83-1.83-1.7-3.81-2.64-5.75-.15-.31-.59-.68-.89-.68-6.7-.03-13.41-.02-20.11-.01-.07,0-.14.05-.35.14v6.44h-3.63V1.52c.63,0,1.09,0,1.56,0,9.1-.01,18.2-.02,27.3-.03ZM81.7,7.21q.04-2.15-2.12-2.15c-6.83,0-13.66,0-20.49,0h-1.24v2.84c.19.03.31.06.43.06,7.35,0,14.7,0,22.04,0,.37,0,.74-.18,1.11-.28.09-.16.18-.31.27-.47ZM80.67,4.57s.03-.08.05-.12h-22.67s0,.08,0,.12h22.62ZM80.64,8.59s.07-.08.1-.12h-22.72s0,.08,0,.12h22.62Z"/>
        <path d="M188.22,14.27V1.35h3.72v17.03c-2.05.07-3.96.08-5.93-1.03-6.86-3.87-13.83-7.54-20.76-11.29-.31-.17-.63-.32-1.1-.57v12.86h-3.77V1.33c1.96-.02,3.82-.1,5.72.97,6.97,3.92,14.05,7.65,21.08,11.45.27.15.55.28,1.04.52ZM160.81,2.08s-.08-.03-.12-.05v15.78s.08,0,.12,0V2.08ZM188.7,14.01s.08.03.12.05V2.07s-.08,0-.12,0v11.94ZM163.69,5.87s-.08-.03-.12-.05v11.99s.08,0,.12,0V5.87Z"/>
        <path d="M138.39,18.21h-4.43c.07.06.04.04.01,0-1.07-1.28-1.9-3.06-3.27-3.69-1.42-.65-3.36-.2-5.07-.21-3.15-.01-6.31-.03-9.46.03-.5,0-1,.42-1.49.68-.16.09-.26.29-.39.45q-2.65,3.18-7.04,2.88c.27-.36.47-.67.7-.95,4.16-5.1,8.33-10.18,12.46-15.31.51-.63,1.06-.73,1.8-.84,1.96-.28,3.18.5,4.37,2.03,3.55,4.57,7.28,8.99,10.93,13.48.29.36.49.8.88,1.44ZM126.97,9.98c-1.29-1.65-2.58-3.3-3.95-5.06-1.4,1.72-2.67,3.28-3.94,4.83-.24.26-.48.52-.82.89h9.57c-.44-.33-.65-.5-.87-.66ZM130.31,13.82l.05-.12h-14.76v.12h14.71ZM127.43,11.21s.03-.08.05-.12h-8.76s0,.08,0,.12h8.71Z"/>
        <path d="M286.47,18.14c-.92-1.08-1.82-2.19-2.79-3.23-.28-.3-.78-.56-1.18-.56-4.67-.04-9.35-.04-14.02,0-.4,0-.83.31-1.19.56-.28.2-.47.54-.69.81q-2.57,3.09-6.85,2.61c.26-.34.49-.65.72-.94,4.14-5.07,8.29-10.13,12.39-15.23.53-.65,1.09-.81,1.9-.9,1.9-.2,3.1.48,4.27,1.99,3.76,4.86,7.69,9.58,11.56,14.35-.1.09-.2.24-.31.25-1.27.11-2.54.19-3.82.29ZM279.86,10.27c-.07-.08-.14-.16-.21-.24-1.36-1.66-2.73-3.33-4.14-5.05-1.62,1.93-3.13,3.73-4.79,5.71,3.15,0,6.03,0,8.92-.02.07,0,.15-.26.22-.4ZM268.12,13.65l-.05.12h14.76s0-.08,0-.12h-14.71ZM279.96,11.21s.03-.08.04-.12h-8.76s0,.08,0,.12h8.71Z"/>
        <path d="M231.16,5.03v13.36h-3.8V5.06h-13.9V1.38h31.66v3.65h-13.96ZM244.22,1.96s.03-.08.05-.12h-29.87s0,.08,0,.12h29.82ZM231.67,4.4l-.05.12h12.84s0-.08,0-.12h-12.79ZM226.95,4.57s.03-.08.05-.12h-12.6s0,.08,0,.12h12.55ZM227.96,5.4s-.08-.03-.12-.05v12.46h.12V5.4Z"/>
        <path class="cls-13" d="M82.99,1.49c-9.1.01-18.2.02-27.3.03-.47,0-.93,0-1.56,0v16.81c-.06-.2-.18-.4-.18-.6-.01-5.28,0-10.57,0-15.85,0-.15.03-.3.05-.54.37-.02.72-.05,1.06-.05,8.85,0,17.7,0,26.56,0,.46,0,.92.12,1.39.19Z"/>
        <path class="cls-9" d="M29.11,19.04H1.21s0-.08,0-.12h27.95s-.03.08-.05.12Z"/>
        <path class="cls-17" d="M58.45,12.19h19.85c0,.08,0,.16,0,.24h-19.85v-.24Z"/>
        <path class="cls-8" d="M.35,1.59v16.53s-.08,0-.12,0V1.58s.08,0,.12,0Z"/>
        <path class="cls-7" d="M53.58,1.6v16.5s-.08,0-.12,0V1.56s.08.03.12.04Z"/>
        <path class="cls-17" d="M192.53,18.04V1.6s.08,0,.12,0v16.49s-.08-.03-.12-.05Z"/>
        <path class="cls-7" d="M159.71,18.06V1.54s.08,0,.12,0v16.54s-.08-.01-.12-.02Z"/>
        <path class="cls-2" d="M115.53,14.86h15.04v.11h-15.04s0-.07,0-.11Z"/>
        <path class="cls-2" d="M283.07,15.01h-14.95s0-.08,0-.12h15s-.03.08-.05.12Z"/>
        <path class="cls-17" d="M226.79,5.79h-13.13c0-.08,0-.16,0-.24h13.14v.24Z"/>
        <path class="cls-17" d="M231.83,5.55h13.13c0,.08,0,.16,0,.24-4.38,0-8.76,0-13.14,0v-.24Z"/>
        <path class="cls-16" d="M226.79,5.79v-.24c.08.13.22.27.22.4.01,4.04,0,8.09-.22,12.13V5.79Z"/>
        <path class="cls-16" d="M231.83,5.55v12.5s-.1.02-.14.03c-.03-.11-.09-.21-.09-.32,0-3.78-.01-7.56,0-11.33,0-.29.15-.58.23-.87Z"/>
        <path class="cls-17" d="M164.52,18.08V6.24c.06,0,.11,0,.17,0v11.81c-.06.01-.11.02-.17.03Z"/>
        <path class="cls-2" d="M187.5,13.3V1.6h.12v11.75l-.12-.05Z"/>
        <path class="cls-4" d="M286.47,18.14c1.27-.09,2.55-.18,3.82-.29.11,0,.21-.17.31-.25.22.2.44.4.66.6-.04.12-.08.23-.11.35-1.56-.14-3.12-.27-4.68-.41Z"/>
        <path class="cls-2" d="M58.45,12.19v5.86h-.33c.11-1.96.22-3.91.33-5.86Z"/>
        <path class="cls-12" d="M4.72,14.72v-2.92c.39-.02.74-.06,1.09-.06,6.99,0,13.99,0,20.98,0,1.43,0,1.87.38,1.96,1.5.07.92-.26,1.48-1.23,1.48-7.55,0-15.09,0-22.79,0ZM27.19,14.3s.03-.08.05-.12H5.52s0,.08,0,.12h21.66Z"/>
        <path class="cls-14" d="M4.72,7.85v-2.71c.36-.03.67-.08.97-.08,7.07,0,14.14,0,21.21,0,1.45,0,1.78.3,1.84,1.43.05,1-.4,1.47-1.4,1.47-7.39,0-14.78,0-22.17-.01-.11,0-.23-.05-.45-.1Z"/>
        <path class="cls-17" d="M81.44,7.68c-.37.1-.74.27-1.11.28-7.35.02-14.7.01-22.04,0-.12,0-.23-.03-.43-.06v-2.84h1.24c6.83,0,13.66,0,20.49,0q2.16,0,2.12,2.15c-.5.08-1.01.23-1.51.23-6.75.02-13.49.01-20.24.01h-1.24v.23h22.73ZM69.89,5.79c-3.43,0-6.86,0-10.29,0-.53,0-1.18-.18-1.16.74.02.84.62.67,1.1.67,6.86,0,13.73,0,20.59,0,.49,0,1.08.16,1.1-.68.01-.92-.64-.73-1.16-.73-3.39,0-6.78,0-10.17,0Z"/>
        <path class="cls-14" d="M81.44,7.68h-22.73v-.23h1.24c6.75,0,13.49,0,20.24-.01.5,0,1.01-.15,1.51-.23-.09.16-.18.31-.27.47Z"/>
        <path class="cls-3" d="M80.67,4.57h-22.62s0-.08,0-.12h22.67s-.03.08-.05.12Z"/>
        <path class="cls-15" d="M80.64,8.59h-22.62s0-.08,0-.12h22.72s-.07.08-.1.12Z"/>
        <path class="cls-4" d="M160.81,2.08v15.73s-.08,0-.12,0V2.03s.08.03.12.05Z"/>
        <path class="cls-10" d="M188.7,14.01V2.08s.08,0,.12,0v11.99s-.08-.03-.12-.05Z"/>
        <path class="cls-3" d="M163.69,5.87v11.94s-.08,0-.12,0V5.82s.08.03.12.05Z"/>
        <path class="cls-17" d="M119.09,9.75c1.27-1.55,2.53-3.11,3.94-4.83,1.37,1.76,2.66,3.41,3.95,5.06l-.05.04c-2.6.02-5.2.03-7.8.05-.01-.1-.02-.21-.03-.31Z"/>
        <path class="cls-6" d="M119.09,9.75c.01.1.02.21.03.31,2.59.02,5.18.04,7.76.06.01,0,.03-.07.04-.11,0,0,.05-.04.05-.04.21.16.43.32.87.66h-9.57c.34-.37.58-.63.82-.89Z"/>
        <path class="cls-3" d="M130.31,13.82h-14.71v-.12h14.76l-.05.12Z"/>
        <path class="cls-4" d="M127.43,11.21h-8.71s0-.08,0-.12h8.76s-.03.08-.05.12Z"/>
        <path class="cls-2" d="M279.86,10.27c-.07.14-.15.4-.22.4-2.89.02-5.77.02-8.92.02,1.67-1.99,3.17-3.78,4.79-5.71,1.42,1.73,2.78,3.39,4.14,5.05-2.58,0-5.17,0-7.75,0,0,.08,0,.16,0,.24,2.65,0,5.31,0,7.96,0Z"/>
        <path class="cls-3" d="M268.12,13.65h14.71s0,.08,0,.12h-14.76l.05-.12Z"/>
        <path class="cls-4" d="M279.96,11.21h-8.71s0-.08,0-.12h8.76s-.03.08-.04.12Z"/>
        <path class="cls-7" d="M279.86,10.27h-7.96c0-.08,0-.16,0-.24h7.75c.07.08.14.16.21.24Z"/>
        <path class="cls-1" d="M244.22,1.96h-29.82s0-.08,0-.12h29.87s-.03.08-.05.12Z"/>
        <path class="cls-3" d="M231.67,4.4h12.79s0,.08,0,.12h-12.84l.05-.12Z"/>
        <path class="cls-3" d="M226.95,4.57h-12.55s0-.08,0-.12h12.6s-.03.08-.05.12Z"/>
        <path class="cls-3" d="M227.96,5.4v12.41h-.12V5.35s.08.03.12.05Z"/>
        <path class="cls-11" d="M27.19,14.3H5.53s0-.08,0-.12h21.71s-.03.08-.05.12Z"/>
        <path class="cls-14" d="M69.89,5.79c3.39,0,6.78,0,10.17,0,.52,0,1.18-.19,1.16.73-.01.84-.6.68-1.1.68-6.86,0-13.73,0-20.59,0-.49,0-1.08.17-1.1-.67-.02-.92.63-.74,1.16-.74,3.43,0,6.86,0,10.29,0Z"/>
        <path class="cls-7" d="M126.92,10.01s-.03.11-.04.11c-2.59-.02-5.18-.04-7.76-.06,2.6-.02,5.2-.03,7.8-.05Z"/>
      </g>
    </g>
  </g>
</svg>